<svg xmlns="http://www.w3.org/2000/svg" xmlns:xlink="http://www.w3.org/1999/xlink" width="500" zoomAndPan="magnify" viewBox="0 0 375 374.999991" height="500" preserveAspectRatio="xMidYMid meet" version="1.0"><defs><g/></defs><g fill="#ffffff" fill-opacity="1"><g transform="translate(143.251944, 267.133319)"><g><path d="M -15.875 -87.96875 C -12.8125 -96.96875 -7.675781 -103.160156 -0.46875 -106.546875 C 6.726562 -109.941406 19.484375 -111.640625 37.796875 -111.640625 C 41.609375 -111.640625 51.238281 -111.476562 66.6875 -111.15625 C 77.914062 -110.84375 87.816406 -108.410156 96.390625 -103.859375 C 104.960938 -99.304688 111.65625 -92.875 116.46875 -84.5625 C 121.289062 -76.25 123.703125 -66.585938 123.703125 -55.578125 C 123.703125 -38.953125 118.4375 -25.53125 107.90625 -15.3125 C 97.375 -5.101562 83.632812 0 66.6875 0 L 12.859375 0 L 13.015625 -1.59375 L 14.921875 -1.59375 C 17.566406 -1.59375 19.84375 -2.460938 21.75 -4.203125 C 23.65625 -5.953125 24.769531 -8.097656 25.09375 -10.640625 L 25.09375 -106.390625 C 11.851562 -106.078125 2.484375 -104.015625 -3.015625 -100.203125 C -5.867188 -98.191406 -8.035156 -96.257812 -9.515625 -94.40625 C -11.003906 -92.550781 -12.546875 -90.195312 -14.140625 -87.34375 Z M 35.40625 -106.390625 L 35.40625 -4.765625 L 66.6875 -4.765625 C 80.132812 -4.765625 91.015625 -9.421875 99.328125 -18.734375 C 107.640625 -28.054688 111.796875 -40.335938 111.796875 -55.578125 C 111.796875 -65.640625 109.914062 -74.503906 106.15625 -82.171875 C 102.394531 -89.847656 97.097656 -95.800781 90.265625 -100.03125 C 83.441406 -104.269531 75.582031 -106.390625 66.6875 -106.390625 Z M 35.40625 -106.390625 "/></g></g></g><g fill="#ffffff" fill-opacity="1"><g transform="translate(104.59765, 235.88332)"><g><path d="M -9.21875 -79.5625 C -12.5 -83.476562 -14.140625 -87.367188 -14.140625 -91.234375 C -14.140625 -95.097656 -13.238281 -98.429688 -11.4375 -101.234375 C -9.632812 -104.035156 -6.722656 -106.414062 -2.703125 -108.375 C 1.316406 -110.332031 5.867188 -111.3125 10.953125 -111.3125 L 76.0625 -111.3125 C 79.34375 -111.3125 82.96875 -111.628906 86.9375 -112.265625 C 90.90625 -112.898438 93.6875 -113.535156 95.28125 -114.171875 L 95.28125 -94.171875 L 93.6875 -94.328125 L 93.6875 -97.03125 C 93.6875 -99.570312 92.785156 -101.765625 90.984375 -103.609375 C 89.179688 -105.460938 87.066406 -106.441406 84.640625 -106.546875 L 54.46875 -106.546875 L 54.46875 -11.4375 C 54.570312 -7.625 56.265625 -4.765625 59.546875 -2.859375 C 61.128906 -2.015625 62.820312 -1.59375 64.625 -1.59375 L 66.6875 -1.59375 L 66.6875 0 L 31.921875 0 L 31.921875 -1.59375 L 33.984375 -1.59375 C 36.734375 -1.59375 39.085938 -2.539062 41.046875 -4.4375 C 43.003906 -6.34375 44.035156 -8.625 44.140625 -11.28125 L 44.140625 -106.546875 L 10.953125 -106.546875 C 2.484375 -106.546875 -3.65625 -103.847656 -7.46875 -98.453125 C -9.476562 -95.703125 -10.484375 -92.816406 -10.484375 -89.796875 C -10.484375 -86.785156 -9.632812 -83.632812 -7.9375 -80.34375 Z M -9.21875 -79.5625 "/></g></g></g><path fill="#000000" d="M 66.164062 179.496094 L 294.140625 179.496094 C 295.203125 179.496094 296.21875 179.917969 296.96875 180.667969 C 297.71875 181.417969 298.140625 182.4375 298.140625 183.5 L 298.140625 191.5 C 298.140625 192.5625 297.71875 193.582031 296.96875 194.332031 C 296.21875 195.082031 295.203125 195.503906 294.140625 195.503906 L 66.164062 195.503906 C 63.957031 195.503906 62.164062 193.710938 62.164062 191.5 L 62.164062 183.5 C 62.164062 181.289062 63.957031 179.496094 66.164062 179.496094 Z M 66.164062 179.496094 " fill-opacity="1" fill-rule="nonzero"/><g fill="#ffffff" fill-opacity="1"><g transform="translate(69.982134, 190.499987)"><g><path d="M 0.734375 0 L 0.734375 -7.109375 L 2.03125 -7.109375 L 2.03125 -4.171875 L 5.40625 -4.171875 L 5.40625 -7.109375 L 6.703125 -7.109375 L 6.703125 0 L 5.40625 0 L 5.40625 -3.03125 L 2.03125 -3.03125 L 2.03125 0 Z M 0.734375 0 "/></g></g></g><g fill="#ffffff" fill-opacity="1"><g transform="translate(85.030501, 190.499987)"><g><path d="M 5.3125 -5.984375 L 2 -5.984375 L 2 -4.15625 L 5.140625 -4.15625 L 5.140625 -3.03125 L 2 -3.03125 L 2 -1.125 L 5.421875 -1.125 L 5.34375 0 L 0.734375 0 L 0.734375 -7.109375 L 5.3125 -7.109375 Z M 5.3125 -5.984375 "/></g></g></g><g fill="#ffffff" fill-opacity="1"><g transform="translate(98.307483, 190.499987)"><g><path d="M 0.734375 0 L 0.734375 -7.109375 L 3.09375 -7.109375 C 4 -7.109375 4.691406 -6.941406 5.171875 -6.609375 C 5.660156 -6.285156 5.90625 -5.804688 5.90625 -5.171875 C 5.90625 -4.828125 5.820312 -4.519531 5.65625 -4.25 C 5.488281 -3.976562 5.25 -3.765625 4.9375 -3.609375 C 5.257812 -3.484375 5.519531 -3.28125 5.71875 -3 C 5.914062 -2.71875 6.015625 -2.394531 6.015625 -2.03125 C 6.015625 -1.414062 5.78125 -0.921875 5.3125 -0.546875 C 4.851562 -0.179688 4.222656 0 3.421875 0 Z M 3.109375 -6.046875 L 2 -6.046875 L 2 -4.109375 L 3.09375 -4.109375 C 3.601562 -4.109375 3.976562 -4.1875 4.21875 -4.34375 C 4.46875 -4.507812 4.59375 -4.765625 4.59375 -5.109375 C 4.59375 -5.429688 4.472656 -5.664062 4.234375 -5.8125 C 4.003906 -5.96875 3.628906 -6.046875 3.109375 -6.046875 Z M 2 -1.0625 L 3.390625 -1.0625 C 3.796875 -1.0625 4.117188 -1.140625 4.359375 -1.296875 C 4.597656 -1.460938 4.71875 -1.71875 4.71875 -2.0625 C 4.71875 -2.707031 4.265625 -3.03125 3.359375 -3.03125 L 2 -3.03125 Z M 2 -1.0625 "/></g></g></g><g fill="#ffffff" fill-opacity="1"><g transform="translate(112.265, 190.499987)"><g><path d="M 6.34375 -1.234375 L 6.65625 -0.234375 C 6.519531 -0.128906 6.351562 -0.0507812 6.15625 0 C 5.96875 0.0625 5.765625 0.09375 5.546875 0.09375 C 4.796875 0.09375 4.207031 -0.238281 3.78125 -0.90625 L 2.75 -2.484375 C 2.644531 -2.648438 2.535156 -2.765625 2.421875 -2.828125 C 2.304688 -2.898438 2.179688 -2.9375 2.046875 -2.9375 L 2 -2.9375 L 2 0 L 0.734375 0 L 0.734375 -7.109375 L 2.9375 -7.109375 C 3.84375 -7.109375 4.523438 -6.921875 4.984375 -6.546875 C 5.453125 -6.171875 5.6875 -5.660156 5.6875 -5.015625 C 5.6875 -4.617188 5.597656 -4.273438 5.421875 -3.984375 C 5.253906 -3.703125 5.019531 -3.476562 4.71875 -3.3125 C 4.414062 -3.144531 4.078125 -3.039062 3.703125 -3 C 3.898438 -2.882812 4.082031 -2.703125 4.25 -2.453125 L 4.8125 -1.625 C 4.957031 -1.40625 5.09375 -1.253906 5.21875 -1.171875 C 5.351562 -1.097656 5.519531 -1.0625 5.71875 -1.0625 C 5.945312 -1.0625 6.15625 -1.117188 6.34375 -1.234375 Z M 2.859375 -6.046875 L 2 -6.046875 L 2 -3.953125 L 2.796875 -3.953125 C 3.335938 -3.953125 3.738281 -4.035156 4 -4.203125 C 4.257812 -4.367188 4.390625 -4.640625 4.390625 -5.015625 C 4.390625 -5.703125 3.878906 -6.046875 2.859375 -6.046875 Z M 2.859375 -6.046875 "/></g></g></g><g fill="#ffffff" fill-opacity="1"><g transform="translate(126.16247, 190.499987)"><g><path d="M 5.3125 -5.984375 L 2 -5.984375 L 2 -4.15625 L 5.140625 -4.15625 L 5.140625 -3.03125 L 2 -3.03125 L 2 -1.125 L 5.421875 -1.125 L 5.34375 0 L 0.734375 0 L 0.734375 -7.109375 L 5.3125 -7.109375 Z M 5.3125 -5.984375 "/></g></g></g><g fill="#ffffff" fill-opacity="1"><g transform="translate(139.439452, 190.499987)"><g><path d="M 8.59375 -7.109375 L 9.828125 -7.109375 L 7.765625 0 L 6.296875 0 L 5 -5.421875 L 3.453125 0 L 1.96875 0 L 0.203125 -7.109375 L 1.515625 -7.109375 L 2.796875 -1.671875 L 4.3125 -7.109375 L 5.828125 -7.109375 L 7.09375 -1.703125 Z M 8.59375 -7.109375 "/></g></g></g><g fill="#ffffff" fill-opacity="1"><g transform="translate(156.909721, 190.499987)"><g/></g></g><g fill="#ffffff" fill-opacity="1"><g transform="translate(166.964168, 190.499987)"><g><path d="M 6.765625 -1.375 C 6.484375 -0.90625 6.09375 -0.539062 5.59375 -0.28125 C 5.101562 -0.03125 4.550781 0.09375 3.9375 0.09375 C 3.207031 0.09375 2.582031 -0.046875 2.0625 -0.328125 C 1.539062 -0.609375 1.140625 -1.007812 0.859375 -1.53125 C 0.585938 -2.0625 0.453125 -2.691406 0.453125 -3.421875 C 0.453125 -4.171875 0.601562 -4.828125 0.90625 -5.390625 C 1.21875 -5.960938 1.644531 -6.410156 2.1875 -6.734375 C 2.738281 -7.054688 3.375 -7.21875 4.09375 -7.21875 C 4.707031 -7.21875 5.234375 -7.097656 5.671875 -6.859375 C 6.109375 -6.628906 6.472656 -6.273438 6.765625 -5.796875 L 5.765625 -5.078125 C 5.585938 -5.410156 5.351562 -5.65625 5.0625 -5.8125 C 4.769531 -5.96875 4.445312 -6.046875 4.09375 -6.046875 C 3.632812 -6.046875 3.226562 -5.929688 2.875 -5.703125 C 2.53125 -5.484375 2.257812 -5.175781 2.0625 -4.78125 C 1.863281 -4.394531 1.765625 -3.945312 1.765625 -3.4375 C 1.765625 -2.695312 1.957031 -2.117188 2.34375 -1.703125 C 2.726562 -1.285156 3.265625 -1.078125 3.953125 -1.078125 C 4.335938 -1.078125 4.6875 -1.164062 5 -1.34375 C 5.320312 -1.519531 5.585938 -1.785156 5.796875 -2.140625 Z M 6.765625 -1.375 "/></g></g></g><g fill="#ffffff" fill-opacity="1"><g transform="translate(181.271959, 190.499987)"><g><path d="M 3.890625 0.09375 C 3.171875 0.09375 2.550781 -0.0390625 2.03125 -0.3125 C 1.519531 -0.59375 1.128906 -0.992188 0.859375 -1.515625 C 0.585938 -2.046875 0.453125 -2.679688 0.453125 -3.421875 C 0.453125 -4.160156 0.597656 -4.816406 0.890625 -5.390625 C 1.179688 -5.960938 1.59375 -6.410156 2.125 -6.734375 C 2.664062 -7.054688 3.304688 -7.21875 4.046875 -7.21875 C 4.703125 -7.21875 5.273438 -7.066406 5.765625 -6.765625 C 6.265625 -6.472656 6.648438 -6.0625 6.921875 -5.53125 C 7.191406 -5.007812 7.328125 -4.398438 7.328125 -3.703125 C 7.328125 -2.929688 7.175781 -2.257812 6.875 -1.6875 C 6.582031 -1.125 6.175781 -0.6875 5.65625 -0.375 C 5.144531 -0.0625 4.554688 0.09375 3.890625 0.09375 Z M 3.859375 -1.078125 C 4.273438 -1.078125 4.644531 -1.179688 4.96875 -1.390625 C 5.289062 -1.597656 5.546875 -1.894531 5.734375 -2.28125 C 5.921875 -2.664062 6.015625 -3.140625 6.015625 -3.703125 C 6.015625 -4.410156 5.832031 -4.976562 5.46875 -5.40625 C 5.101562 -5.832031 4.617188 -6.046875 4.015625 -6.046875 C 3.578125 -6.046875 3.191406 -5.9375 2.859375 -5.71875 C 2.523438 -5.5 2.257812 -5.195312 2.0625 -4.8125 C 1.863281 -4.425781 1.765625 -3.972656 1.765625 -3.453125 C 1.765625 -2.691406 1.953125 -2.101562 2.328125 -1.6875 C 2.703125 -1.28125 3.210938 -1.078125 3.859375 -1.078125 Z M 3.859375 -1.078125 "/></g></g></g><g fill="#ffffff" fill-opacity="1"><g transform="translate(196.670602, 190.499987)"><g><path d="M 0.6875 0 L 0.96875 -7.109375 L 2.09375 -7.109375 L 4.703125 -1.625 L 7.296875 -7.109375 L 8.421875 -7.109375 L 8.640625 0 L 7.390625 0 L 7.25 -4.421875 L 5.140625 0 L 4.15625 0 L 2.078125 -4.390625 L 1.890625 0 Z M 0.6875 0 "/></g></g></g><g fill="#ffffff" fill-opacity="1"><g transform="translate(213.640472, 190.499987)"><g><path d="M 0.6875 0 L 0.96875 -7.109375 L 2.09375 -7.109375 L 4.703125 -1.625 L 7.296875 -7.109375 L 8.421875 -7.109375 L 8.640625 0 L 7.390625 0 L 7.25 -4.421875 L 5.140625 0 L 4.15625 0 L 2.078125 -4.390625 L 1.890625 0 Z M 0.6875 0 "/></g></g></g><g fill="#ffffff" fill-opacity="1"><g transform="translate(230.610342, 190.499987)"><g><path d="M 5.453125 -7.109375 L 6.75 -7.109375 L 6.765625 -3.328125 C 6.765625 -2.617188 6.644531 -2.007812 6.40625 -1.5 C 6.175781 -0.988281 5.832031 -0.59375 5.375 -0.3125 C 4.925781 -0.0390625 4.382812 0.09375 3.75 0.09375 C 2.738281 0.09375 1.976562 -0.160156 1.46875 -0.671875 C 0.957031 -1.179688 0.703125 -1.960938 0.703125 -3.015625 L 0.703125 -7.109375 L 2 -7.109375 L 2 -3.109375 C 2 -2.398438 2.144531 -1.882812 2.4375 -1.5625 C 2.726562 -1.238281 3.160156 -1.078125 3.734375 -1.078125 C 4.316406 -1.078125 4.753906 -1.265625 5.046875 -1.640625 C 5.335938 -2.015625 5.476562 -2.597656 5.46875 -3.390625 Z M 5.453125 -7.109375 "/></g></g></g><g fill="#ffffff" fill-opacity="1"><g transform="translate(245.688734, 190.499987)"><g><path d="M 5.40625 -7.109375 L 6.65625 -7.109375 L 6.65625 0 L 5.515625 0 L 1.984375 -4.953125 L 1.984375 0 L 0.734375 0 L 0.734375 -7.109375 L 1.875 -7.109375 L 5.40625 -2.15625 Z M 5.40625 -7.109375 "/></g></g></g><g fill="#ffffff" fill-opacity="1"><g transform="translate(260.697064, 190.499987)"><g><path d="M 0.734375 0 L 0.734375 -7.109375 L 2.03125 -7.109375 L 2.03125 0 Z M 0.734375 0 "/></g></g></g><g fill="#ffffff" fill-opacity="1"><g transform="translate(271.081775, 190.499987)"><g><path d="M 5.890625 -7.109375 L 5.734375 -5.96875 L 3.53125 -5.96875 L 3.53125 0 L 2.21875 0 L 2.21875 -5.96875 L -0.0625 -5.96875 L -0.0625 -7.109375 Z M 5.890625 -7.109375 "/></g></g></g><g fill="#ffffff" fill-opacity="1"><g transform="translate(284.448817, 190.499987)"><g><path d="M 6.09375 -7.109375 L 3.609375 -3.1875 L 3.609375 0 L 2.296875 0 L 2.296875 -3.15625 L -0.265625 -7.109375 L 1.21875 -7.109375 L 3 -4.3125 L 4.734375 -7.109375 Z M 6.09375 -7.109375 "/></g></g></g></svg>