<svg width="1009" height="952" viewBox="0 0 1009 952" fill="none" xmlns="http://www.w3.org/2000/svg">
<rect width="1009" height="952" fill="url(#paint0_linear_150_226)"/>
<path d="M342.729 454.839C350.969 431.991 364.79 416.273 384.182 407.676C403.542 399.058 437.869 394.744 487.142 394.744C497.4 394.744 523.308 395.161 564.877 395.974C595.084 396.767 621.728 402.945 644.798 414.498C667.858 426.061 685.873 442.384 698.822 463.486C711.792 484.589 718.287 509.123 718.287 537.068C718.287 579.273 704.119 613.347 675.783 639.289C647.447 665.211 610.471 678.162 564.877 678.162H420.043L420.464 674.116H425.593C432.708 674.116 438.836 671.915 443.965 667.492C449.094 663.049 452.09 657.605 452.962 651.149V408.072C417.332 408.866 392.128 414.102 377.329 423.78C369.656 428.887 363.823 433.796 359.84 438.497C355.835 443.207 351.684 449.187 347.395 456.426L342.729 454.839ZM480.71 408.072V666.064H564.877C601.054 666.064 630.336 654.243 652.702 630.602C675.068 606.941 686.251 575.763 686.251 537.068C686.251 511.523 681.185 489.022 671.074 469.555C660.953 450.069 646.701 434.956 628.318 424.216C609.956 413.457 588.809 408.072 564.877 408.072H480.71Z" fill="white"/>
<path d="M256.633 396.846C247.804 386.91 243.39 377.033 243.39 367.215C243.39 357.408 245.818 348.949 250.663 341.829C255.519 334.719 263.349 328.679 274.164 323.701C284.979 318.733 297.224 316.244 310.909 316.244H486.096C494.925 316.244 504.679 315.441 515.357 313.824C526.036 312.218 533.519 310.601 537.807 308.985V359.758L533.519 359.361V352.499C533.519 346.053 531.091 340.48 526.246 335.799C521.39 331.099 515.704 328.61 509.177 328.342H427.995V569.793C428.268 579.472 432.829 586.731 441.658 591.57C445.915 593.712 450.466 594.783 455.322 594.783H460.871V598.829H367.328V594.783H372.878C380.277 594.783 386.605 592.383 391.881 587.564C397.147 582.724 399.921 576.933 400.205 570.19V328.342H310.909C288.122 328.342 271.6 335.195 261.341 348.889C255.939 355.871 253.227 363.199 253.227 370.865C253.227 378.511 255.519 386.513 260.08 394.863L256.633 396.846Z" fill="white"/>
<path d="M178.025 455.681H791.435C794.293 455.681 797.026 456.752 799.044 458.656C801.062 460.56 802.197 463.148 802.197 465.845V486.155C802.197 488.852 801.062 491.44 799.044 493.344C797.026 495.248 794.293 496.319 791.435 496.319H178.025C172.087 496.319 167.263 491.768 167.263 486.155V465.845C167.263 460.233 172.087 455.681 178.025 455.681Z" fill="black"/>
<path d="M190.274 483.616V465.568H193.764V473.025H202.845V465.568H206.334V483.616H202.845V475.921H193.764V483.616H190.274Z" fill="white"/>
<path d="M243.083 468.424H234.17V473.065H242.62V475.921H234.17V480.76H243.377L243.167 483.616H230.765V465.568H243.083V468.424Z" fill="white"/>
<path d="M266.489 483.616V465.568H272.837C275.275 465.568 277.136 465.994 278.428 466.837C279.742 467.66 280.404 468.88 280.404 470.486C280.404 471.359 280.173 472.142 279.732 472.827C279.28 473.521 278.639 474.056 277.798 474.453C278.66 474.77 279.364 475.286 279.9 476C280.425 476.714 280.699 477.537 280.699 478.459C280.699 480.026 280.068 481.276 278.807 482.228C277.567 483.16 275.874 483.616 273.72 483.616H266.489ZM272.879 468.265H269.894V473.184H272.837C274.203 473.184 275.212 472.985 275.864 472.589C276.536 472.172 276.873 471.518 276.873 470.645C276.873 469.832 276.547 469.237 275.906 468.86C275.286 468.463 274.277 468.265 272.879 468.265ZM269.894 480.919H273.636C274.729 480.919 275.591 480.72 276.242 480.324C276.883 479.907 277.209 479.253 277.209 478.38C277.209 476.744 275.99 475.921 273.552 475.921H269.894V480.919Z" fill="white"/>
<path d="M319.137 480.482L319.977 483.021C319.609 483.289 319.158 483.487 318.632 483.616C318.128 483.775 317.581 483.854 316.992 483.854C314.974 483.854 313.387 483.011 312.242 481.315L309.467 477.309C309.183 476.892 308.889 476.595 308.584 476.436C308.269 476.258 307.932 476.159 307.575 476.159H307.449V483.616H304.044V465.568H309.971C312.41 465.568 314.239 466.044 315.479 466.996C316.74 467.948 317.371 469.247 317.371 470.883C317.371 471.894 317.129 472.767 316.656 473.501C316.204 474.215 315.574 474.79 314.764 475.207C313.944 475.633 313.04 475.901 312.031 476C312.557 476.297 313.051 476.754 313.503 477.388L315.016 479.491C315.405 480.046 315.773 480.433 316.11 480.641C316.467 480.829 316.919 480.919 317.455 480.919C318.064 480.919 318.632 480.78 319.137 480.482ZM309.761 468.265H307.449V473.58H309.593C311.044 473.58 312.126 473.372 312.83 472.946C313.524 472.529 313.881 471.835 313.881 470.883C313.881 469.138 312.504 468.265 309.761 468.265Z" fill="white"/>
<path d="M353.755 468.424H344.842V473.065H353.293V475.921H344.842V480.76H354.05L353.839 483.616H341.437V465.568H353.755V468.424Z" fill="white"/>
<path d="M398.308 465.568H401.629L396.08 483.616H392.128L388.638 469.852L384.476 483.616H380.482L375.732 465.568H379.263L382.711 479.372L386.789 465.568H390.867L394.272 479.292L398.308 465.568Z" fill="white"/>
<path d="M467.449 480.125C466.692 481.315 465.641 482.247 464.296 482.902C462.972 483.537 461.49 483.854 459.839 483.854C457.874 483.854 456.192 483.497 454.794 482.783C453.386 482.069 452.314 481.057 451.557 479.729C450.822 478.38 450.464 476.783 450.464 474.929C450.464 473.025 450.864 471.359 451.683 469.931C452.524 468.483 453.67 467.343 455.131 466.52C456.613 465.706 458.326 465.29 460.26 465.29C461.91 465.29 463.329 465.597 464.506 466.202C465.683 466.787 466.661 467.69 467.449 468.9L464.758 470.724C464.275 469.881 463.644 469.257 462.866 468.86C462.078 468.463 461.206 468.265 460.26 468.265C459.02 468.265 457.927 468.562 456.981 469.138C456.056 469.693 455.32 470.476 454.794 471.478C454.258 472.46 453.996 473.6 453.996 474.889C453.996 476.773 454.511 478.241 455.551 479.292C456.581 480.353 458.032 480.879 459.881 480.879C460.911 480.879 461.857 480.661 462.698 480.205C463.56 479.758 464.275 479.084 464.842 478.182L467.449 480.125Z" fill="white"/>
<path d="M498.211 483.854C496.277 483.854 494.606 483.517 493.208 482.823C491.831 482.109 490.78 481.097 490.055 479.768C489.319 478.42 488.962 476.813 488.962 474.929C488.962 473.055 489.35 471.389 490.139 469.931C490.917 468.483 492.031 467.343 493.46 466.52C494.91 465.706 496.634 465.29 498.631 465.29C500.397 465.29 501.931 465.677 503.256 466.44C504.601 467.184 505.631 468.225 506.367 469.574C507.092 470.903 507.46 472.45 507.46 474.215C507.46 476.178 507.05 477.884 506.241 479.332C505.452 480.76 504.359 481.871 502.961 482.664C501.585 483.457 499.998 483.854 498.211 483.854ZM498.127 480.879C499.241 480.879 500.239 480.621 501.112 480.086C501.973 479.56 502.667 478.806 503.172 477.825C503.676 476.853 503.928 475.643 503.928 474.215C503.928 472.42 503.434 470.982 502.457 469.891C501.469 468.81 500.166 468.265 498.547 468.265C497.37 468.265 496.329 468.543 495.436 469.098C494.532 469.653 493.817 470.427 493.292 471.399C492.756 472.38 492.493 473.531 492.493 474.85C492.493 476.783 492.998 478.281 494.007 479.332C495.016 480.363 496.382 480.879 498.127 480.879Z" fill="white"/>
<path d="M531.025 483.616L531.782 465.568H534.809L541.83 479.491L548.808 465.568H551.835L552.424 483.616H549.061L548.682 472.39L543.007 483.616H540.358L534.767 472.47L534.262 483.616H531.025Z" fill="white"/>
<path d="M576.685 483.616L577.442 465.568H580.469L587.49 479.491L594.469 465.568H597.496L598.084 483.616H594.721L594.343 472.39L588.667 483.616H586.018L580.427 472.47L579.922 483.616H576.685Z" fill="white"/>
<path d="M635.168 465.568H638.657L638.7 475.167C638.7 476.972 638.374 478.519 637.733 479.808C637.112 481.107 636.188 482.109 634.958 482.823C633.749 483.517 632.288 483.854 630.586 483.854C627.863 483.854 625.814 483.209 624.447 481.91C623.071 480.621 622.387 478.638 622.387 475.96V465.568H625.877V475.722C625.877 477.527 626.266 478.836 627.054 479.649C627.832 480.472 628.998 480.879 630.543 480.879C632.109 480.879 633.287 480.403 634.075 479.451C634.853 478.499 635.231 477.021 635.21 475.008L635.168 465.568Z" fill="white"/>
<path d="M675.613 465.568H678.976V483.616H675.907L666.406 471.042V483.616H663.042V465.568H666.111L675.613 478.142V465.568Z" fill="white"/>
<path d="M703.425 483.616V465.568H706.914V483.616H703.425Z" fill="white"/>
<path d="M745.24 465.568L744.82 468.463H738.892V483.616H735.361V468.463H729.223V465.568H745.24Z" fill="white"/>
<path d="M781.753 465.568L775.069 475.524V483.616H771.537V475.603L764.642 465.568H768.636L773.429 472.668L778.096 465.568H781.753Z" fill="white"/>
<defs>
<linearGradient id="paint0_linear_150_226" x1="504.5" y1="0" x2="504.5" y2="952" gradientUnits="userSpaceOnUse">
<stop stop-color="#582573"/>
<stop offset="1" stop-opacity="0.2"/>
</linearGradient>
</defs>
</svg>
